# xmcd CD database file
#
# Track frame offsets:
#	150
#	10887
#	22467
#	32747
#	43472
#	64642
#	75260
#	85732
#	99925
#	124080
#	139070
#	159492
#	176370
#	194877
#	205705
#	216132
#	227475
#	237387
#	248187
#	267402
#
# Disc length: 3701 seconds
#
# Revision: 0
# Processed by: cddbd v1.5.1PL0 Copyright (c) Steve Scherf et al.
# Submitted via: CDex 1.51
#
DISCID=140e7314
DTITLE=Various Artist - NHKみんなのうた ぼくらマチボウズ！
DYEAR=1998
DGENRE=Vocal
TTITLE0=ぼくらまちボウズ！/ISLANDS
TTITLE1=なつやすみのおさかな/大島実織
TTITLE2=Let's be friends 〜友達になろうよ〜/古北まなみ
TTITLE3=以心伝心しよう/上谷麻紀
TTITLE4=雨のちスペシャル/Shery
TTITLE5=ピアノ/みなみらんぼう
TTITLE6=メトロポリタン美術館/KUKO
TTITLE7=白いスピッツ/Beagle Hat
TTITLE8=山に抱かれて/小椋佳 アルゴ合唱団
TTITLE9=さとうきび畑/堀江美都子
TTITLE10=WAになっておどろう 〜イレ アイエ〜/児玉国弘
TTITLE11=ヘドラーの山/細川たかし 森の木児童合唱団
TTITLE12=米の歌/こっつん
TTITLE13=そらとぶくじら/外山喜雄とデキシーセインツ
TTITLE14=ボクのおとうとくん/小堺一機
TTITLE15=虫歯のこどもの誕生日/吉田紀人
TTITLE16=ドラキュラのうた/クニ河内&東京放送児童合唱団
TTITLE17=チュンチュンワールド 〜マジックカーニバル〜/大和田りつこ 岡崎裕美 こどもコーラス元気組
TTITLE18=雲/増田太郎
TTITLE19=小さな木の実/蒲原史子
EXTD=YEAR: 1998
EXTT0=
EXTT1=
EXTT2=
EXTT3=
EXTT4=
EXTT5=
EXTT6=
EXTT7=
EXTT8=
EXTT9=
EXTT10=
EXTT11=
EXTT12=
EXTT13=
EXTT14=
EXTT15=
EXTT16=
EXTT17=
EXTT18=
EXTT19=
PLAYORDER=
